<svg xmlns="http://www.w3.org/2000/svg" width="1200" height="630" viewBox="0 0 1200 630">
  <rect width="1200" height="630" fill="#0f0f1a"/>
  <g fill="#ff6b6b" opacity="0.7">
    <circle cx="100" cy="100" r="8"/><circle cx="300" cy="80" r="6"/><circle cx="500" cy="120" r="10"/>
    <circle cx="700" cy="90" r="7"/><circle cx="900" cy="110" r="9"/><circle cx="1100" cy="100" r="8"/>
    <circle cx="150" cy="250" r="7"/><circle cx="350" cy="240" r="9"/><circle cx="550" cy="260" r="6"/>
    <circle cx="750" cy="230" r="10"/><circle cx="950" cy="250" r="7"/><circle cx="1050" cy="240" r="8"/>
    <circle cx="200" cy="400" r="9"/><circle cx="400" cy="390" r="7"/><circle cx="600" cy="410" r="8"/>
    <circle cx="800" cy="380" r="10"/><circle cx="1000" cy="400" r="6"/>
    <circle cx="250" cy="530" r="7"/><circle cx="450" cy="540" r="9"/><circle cx="650" cy="520" r="8"/>
    <circle cx="850" cy="530" r="6"/><circle cx="100" cy="550" r="7"/><circle cx="1100" cy="550" r="8"/>
  </g>
  <text x="600" y="590" text-anchor="middle" fill="#ff6b6b" font-family="sans-serif" font-size="36" font-weight="bold">Sprawl Gap</text>
</svg>
